<?xml version="1.0" encoding="utf-8"?>
<!-- Generator: Adobe Illustrator 27.7.0, SVG Export Plug-In . SVG Version: 6.00 Build 0)  -->
<svg version="1.1" id="Layer_1" xmlns="http://www.w3.org/2000/svg" xmlns:xlink="http://www.w3.org/1999/xlink" x="0px" y="0px"
	 viewBox="0 0 511.8 290.2" style="enable-background:new 0 0 511.8 290.2;" xml:space="preserve">
<style type="text/css">
	.st0{fill:#313131;}
</style>
<g>
	<path class="st0" d="M218.7,13.6H216C216,9.6,208.1,2,201,2v54.4c0,3.1,1.7,4.4,4.4,4.4v0.3h-23.3V61c2.4,0,4.4-1.4,4.4-4.4V1.7
		c-7.5,0-15.4,7.8-15.4,11.9h-2.7V0h49.9v13.6L218.7,13.6L218.7,13.6z"/>
	<path class="st0" d="M226.9,0.3V0h23.3v0.3c-2.4,0-4.4,1.4-4.4,4.4v19.6h15V4.8c0-3.1-1.7-4.4-4.4-4.4V0h23.3v0.3
		c-2.4,0-4.4,1.4-4.4,4.4v51c0,3.1,1.7,4.4,4.4,4.4v0.3h-23.3v-0.3c2.4,0,4.4-1.4,4.4-4.4V27h-15v28.8c0,3.1,1.7,4.4,4.4,4.4v0.3
		h-23.3v-0.3c2.4,0,4.4-1.4,4.4-4.4v-51C231.3,2,229.3,0.3,226.9,0.3z"/>
	<path class="st0" d="M327.6,10.6h-2.7c0-3.8-10.6-8.5-21.6-8.5v23.3h13c2.7,0,5.1-1,5.1-2h0.7v7.5h-0.2c0-1.4-2.4-2-5.1-2h-13.1
		v29.8c12.6,0,22.6-4.4,22.6-8.9h2.7v10.9h-44.5v-0.3c2.4,0,4.4-1.4,4.4-4.4v-51c0-3.1-1.7-4.4-4.4-4.4V0.1h43.1L327.6,10.6
		L327.6,10.6z"/>
	<path class="st0" d="M32.1,169.1c-15.4,0-30.5-5.5-30.5-11.3v-16.7h22v17.2c0,2.4,4.1,4.8,8.2,4.8c4.4,0,8.2-2,8.2-4.8V77.2
		c0-4.8-2.7-7.2-6.5-7.2v-0.7h35.3v0.7c-3.8,0-6.5,2.4-6.5,7.2v80.4C62.6,163.7,47.2,169.1,32.1,169.1z"/>
	<path class="st0" d="M98.8,167.1v0.7H75v-0.7c2,0,6.8-4.1,7.8-6.5l29.8-91.4h14l24,91.4c1,2.4,3.8,6.5,6.8,6.5v0.7h-34.2v-0.7
		c2.4,0,4.8-2.7,4.8-4.8l-4.8-21.3H99.9l-6.1,19.9C93.7,162.6,95.4,167.1,98.8,167.1z M121.8,136.6l-9.2-36.6l-11.3,36.6H121.8z"/>
	<path class="st0" d="M205.4,71.9c-7.2,0-13.3,2-13.6,5.5V155c0,4.4,4.4,9.6,14,9.6c10.2,0,15.4-4.8,16-9.6v-22h14v22.3
		c-0.3,8.2-15,13.6-32.5,13.6c-22.3,0-32.9-5.5-32.9-13.6V81.4c0-8.5,18.2-13.6,36.6-13.6c10.9,0,16.7,0.7,27.4,1.4v17.2H232
		C227.2,79.7,220.1,71.9,205.4,71.9z"/>
	<path class="st0" d="M336.8,167.1v0.7h-34.9v-0.7c2.7,0,4.8-2.4,4.8-5.1c0-1-0.3-2-0.7-3.4l-17.5-52.4l-9.6,6.8v46.9
		c0,4.8,2.7,7.2,6.5,7.2v0.7h-37.3V167c3.8,0,6.5-2.4,6.5-7.2V77c0-4.8-2.7-7.2-6.5-7.2v-0.7h37v0.7c-3.8,0-6.5,2.4-6.5,7.2v29.1
		l30.1-29.5c1.4-1.4,1.7-3.4,1.7-4.1c0-1.7-2.4-2.4-4.8-2.4v-0.7h30.8v0.7c-2.7,0-7.5,1.7-13.6,6.5L305.3,91l23.3,68.1
		C331,164,332.3,167.1,336.8,167.1z"/>
	<path class="st0" d="M408.6,86.2h-4.1c0-6.5-16-13.6-32.5-13.6v38h19.9c4.4,0,7.8-1.7,7.8-3.4h1.4v12.3h-1.4c0-2-3.4-3.4-7.8-3.4
		H372v48.2c19.2,0,34.2-7.2,34.2-14.3h4.1v17.9h-67.1v-0.7c3.8,0,6.5-2.4,6.5-7.2V77.1c0-4.8-2.7-7.2-6.5-7.2v-0.7h65.4V86.2z"/>
	<path class="st0" d="M505.2,91h-4.1c0-6.5-11.6-19.2-22.6-19.2v87.7c0,4.8,2.7,7.2,6.5,7.2v1h-35.3V167c3.8,0,6.5-2.4,6.5-7.2v-88
		c-10.9,0-22.6,12.6-22.6,19.2h-4.1V69h75.4v22H505.2z"/>
	<path class="st0" d="M71.2,178.7V178h39.4v0.7c-4.1,0-7.5,2.7-7.5,8.2V281c0,5.5,3.1,8.2,7.5,8.2v0.7H72.2v-0.7
		c4.1,0,7.5-2.7,7.5-8.2v-68.8L51,289.9h-4.1l-27.8-77.7V281c0,5.5,3.1,8.2,7.5,8.2v0.7H0v-0.7c4.1,0,7.5-2.7,7.5-8.2v-94.2
		c0-5.5-3.1-8.2-7.5-8.2V178h40.7v0.7c-3.1,0-6.1,2.4-6.1,6.1c0,1,20.2,57.2,20.2,57.2s21.6-57.5,21.6-58.2
		C76.7,179.4,73.6,178.7,71.2,178.7z"/>
	<path class="st0" d="M144.8,289.2v0.7h-27.1v-0.7c2.4,0,7.8-4.8,8.9-7.5l33.9-104.1h16l27.4,104.1c1,2.7,4.1,7.5,7.8,7.5v0.7h-39
		v-0.7c2.7,0,5.8-3.1,5.8-5.5l-6.1-24H146l-7.2,22.6C139,284.4,141,289.2,144.8,289.2z M171.2,254.6l-10.6-41.7l-13,41.7H171.2z"/>
	<path class="st0" d="M319.7,289.2v0.7H280v-0.7c3.1,0,5.1-2.7,5.1-5.8c0-1-0.3-2.4-0.7-3.8l-19.9-59.6l-10.9,7.8v53.5
		c0,5.5,3.1,8.2,7.5,8.2v0.7h-42.1v-0.7c4.1,0,7.5-2.7,7.5-8.2v-94.5c0-5.5-3.1-8.2-7.5-8.2V178h42.4v0.7c-4.1,0-7.5,2.7-7.5,8.2
		v33.2l34.6-33.6c1.7-1.7,2-3.8,2-4.8c0-1.7-2.7-2.7-5.1-2.7v-0.7h35.3v0.7c-3.1,0-8.5,1.7-15.4,7.5l-20.2,16.4l26.4,77.3
		C313.2,285.8,314.9,289.2,319.7,289.2z"/>
	<path class="st0" d="M401.8,197.2h-4.4c0-7.2-18.5-15.4-37-15.4V225h22.6c4.8,0,8.9-1.7,8.9-4.1h1.4v14h-1.4c0-2.4-3.8-4.1-8.9-4.1
		h-22.6v55.2c22,0,39-8.2,39-16.4h4.4v20h-76.3v-0.7c4.1,0,7.5-2.7,7.5-8.2v-93.8c0-5.5-3.1-8.2-7.5-8.2V178h74.3
		C401.8,178,401.8,197.2,401.8,197.2z"/>
	<path class="st0" d="M499.1,191.6v24c0,5.8-5.8,9.9-14.7,12.3l19.2,54.8c1.7,4.8,3.8,6.8,8.2,6.8v0.7h-38.3v-0.7
		c2.4,0,4.8-1.7,4.8-5.1c0-1-11.6-32.9-19.6-54.8h-10.2v51.7c0,5.5,3.1,8.2,7.5,8.2v0.7h-37.3v-0.7c4.1,0,7.5-2.7,7.5-8.2v-94.5
		c0-5.5-3.1-8.2-7.5-8.2V178h48.9C485.8,177.7,499.1,183.1,499.1,191.6z M448.5,182.4v42.4h15.7c6.8,0,10.6-3.1,10.6-5.8v-30.8
		c0-2.7-3.8-5.8-10.6-5.8C464.1,182.4,448.5,182.4,448.5,182.4z"/>
</g>
</svg>
